<svg viewBox="0 0 96 96" xmlns="http://www.w3.org/2000/svg" xmlns:xlink="http://www.w3.org/1999/xlink" id="Icons_Siren" overflow="hidden"><rect x="46" y="14" width="4" height="12" fill="#448F54"/><rect x="66.8" y="21.5" width="11.3" height="4" fill="#448F54" transform="matrix(-0.7071 0.7071 -0.7071 -0.7071 140.346 -11.0619)"/><rect x="21.5" y="17.8" width="4" height="11.3" fill="#448F54" transform="matrix(-0.7071 0.7071 -0.7071 -0.7071 56.6482 23.4649)"/><rect x="72" y="42" width="10" height="4" fill="#448F54"/><rect x="14" y="42" width="10" height="4" fill="#448F54"/><path d="M32 70 35.4 36 60.5 36 64 70 32 70ZM76 70 70 70 66.4 33.6C66.2 31.6 64.5 30 62.4 30L33.6 30C31.5 30 29.8 31.6 29.6 33.6L26 70 20 70 20 76 14 76 14 82 82 82 82 76 76 76 76 70Z" fill="#448F54"/><path d="M52.8 40 55.3 66 59.4 66 56.8 40Z" fill="#448F54"/></svg>