<svg viewBox="0 0 96 96" xmlns="http://www.w3.org/2000/svg" xmlns:xlink="http://www.w3.org/1999/xlink" id="Icons_FireExtinguisher_M" overflow="hidden"><g id="Icons"><path d="M76 24.192 76 9.808 57 13.161 57 16 49 16 49 12C49 10.8954 48.1046 10 47 10L40 10 40 10.031C38.3675 7.81336 35.2464 7.33898 33.0288 8.97144 30.8112 10.6039 30.3368 13.725 31.9692 15.9426 32.6264 16.8354 33.5623 17.4836 34.629 17.785 29.3483 20.1083 25.2572 24.5035 23.318 29.937L23.059 30.664C22.8525 31.1762 23.1003 31.7589 23.6125 31.9654 24.1247 32.1719 24.7074 31.9241 24.9139 31.4119 24.924 31.387 24.933 31.3616 24.941 31.336L25.201 30.61C27.3983 24.4495 32.6123 19.854 39 18.448L39 24.909C33.5925 26.9491 30.0098 32.1204 30 37.9L30 87C30.0033 89.7601 32.2399 91.9967 35 92L53 92C55.7601 91.9967 57.9967 89.7601 58 87L58 37.9C57.9902 32.1204 54.4075 26.9491 49 24.909L49 18 57 18 57 20.839ZM59 14.839 74 12.192 74 21.808 59 19.161ZM41 17 41 12 47 12 47 24.309C46.0468 24.1048 45.0748 24.0012 44.1 24L43.9 24C42.9252 24.0012 41.9532 24.1048 41 24.309ZM36 16C34.3431 16 33 14.6569 33 13 33 11.3431 34.3431 10 36 10 37.6569 10 39 11.3431 39 13 39 14.6569 37.6569 16 36 16ZM56 37.9 56 87C56 88.6569 54.6569 90 53 90L35 90C33.3431 90 32 88.6569 32 87L32 37.9C32.0077 31.331 37.331 26.0077 43.9 26L44.1 26C50.669 26.0077 55.9923 31.331 56 37.9Z" fill="#448F54"/></g></svg>