<svg viewBox="0 0 96 96" xmlns="http://www.w3.org/2000/svg" xmlns:xlink="http://www.w3.org/1999/xlink" id="Icons_FirefighterFemale_M" overflow="hidden"><g id="Icons"><path d="M74.639 58.24C71.5132 55.7438 68.0189 53.7477 64.281 52.323 66.0713 51.8922 67.765 51.1293 69.274 50.074 69.7165 49.7436 69.8074 49.117 69.477 48.6744 69.4734 48.6696 69.4697 48.6648 69.466 48.66 68.3354 47.3249 67.6344 45.6793 67.455 43.939 67.426 43.476 67.455 42.765 67.489 41.939 67.5928 40.1732 67.5747 38.4023 67.435 36.639 71.588 34.569 72.493 31.791 72.493 29.77 72.493 28.07 71.655 25.589 67.671 23.364 66.7745 22.8018 65.8345 22.3122 64.86 21.9 64.1985 16.4384 60.943 11.6313 56.117 8.99L55.463 8.635C54.9305 6.50671 53.0229 5.01028 50.829 5L45.194 5C42.9851 4.99396 41.0585 6.49923 40.53 8.644L39.893 8.99C35.0574 11.6298 31.7916 16.4396 31.122 21.908 30.1474 22.32 29.2073 22.8096 28.311 23.372 24.327 25.597 23.489 28.082 23.489 29.778 23.489 31.802 24.397 34.585 28.566 36.656 28.4265 38.4147 28.4085 40.1809 28.512 41.942 28.545 42.765 28.575 43.476 28.546 43.942 28.367 45.6824 27.666 47.3281 26.535 48.663 26.1966 49.0995 26.2761 49.7276 26.7126 50.066 26.7173 50.0697 26.7222 50.0734 26.727 50.077 28.234 51.1311 29.9252 51.8936 31.713 52.325 27.9739 53.7483 24.4786 55.7437 21.352 58.24 19.3195 59.9104 18.0994 62.3711 18 65L18 82.035 18.445 82.335C23.114 85.445 35.77 87 48.321 87 60.921 87 73.421 85.432 77.591 82.3L77.991 82 77.991 64.981C77.8879 62.3583 76.668 59.905 74.639 58.24ZM62.646 36.457C62.776 35.9032 62.857 35.339 62.888 34.771 62.9603 34.1834 62.9977 33.592 63 33L62.977 30.481C65.832 33.356 65.624 38.562 65.489 41.858 65.453 42.736 65.422 43.495 65.457 44.058 65.6044 45.835 66.2222 47.5408 67.247 49 65.739 49.869 62.391 51.387 58.999 50.2L58.999 43.169C60.1495 41.932 61.0829 40.5097 61.76 38.962L61.778 38.955C62.1548 38.1553 62.4457 37.318 62.646 36.457ZM49 53.9 49 49.96 50.983 47.7C53.1671 47.2532 55.2232 46.3224 57 44.976L57 50.583C57 52.088 53.968 53.7 49 53.9ZM39 50.583 39 44.972C40.7759 46.3199 42.8313 47.2527 45.015 47.702L47 49.96 47 53.9C42.03 53.7 39 52.088 39 50.583ZM34.995 31C34.995 30.8 35 30.61 35.004 30.434 35.013 30.081 35.034 29.551 35.066 29.064 38.628 27.306 41.961 26.364 47.949 26.364 53.96 26.364 57.412 27.347 60.916 29.064 60.948 29.551 60.969 30.08 60.977 30.433 61.006 31.627 60.989 33.333 60.896 34.577 60.0333 41.6974 53.5616 46.7703 46.4412 45.9076 40.0659 45.1352 35.2124 39.8191 35.022 33.4 35.014 33.164 35.0073 32.9253 35.002 32.684ZM55.163 10.748C59.019 12.8439 61.7576 16.5301 62.651 20.827 59.8277 19.5305 56.8178 18.6869 53.732 18.327ZM45.194 7 50.816 7C52.1123 7.00855 53.2347 7.90247 53.533 9.164L51.833 18.14C50.633 18.049 49.347 18 47.949 18 46.584 18 45.332 18.046 44.163 18.131L42.463 9.183C42.755 7.90886 43.8868 7.00416 45.194 7ZM40.846 10.748 42.274 18.312C39.1783 18.6613 36.1594 19.5085 33.334 20.821 34.2416 16.525 36.9873 12.8432 40.846 10.748ZM33.177 27.848C30.8564 29.3759 29.2935 31.817 28.877 34.564 26.462 33.212 25.489 31.564 25.489 29.783 25.489 28.031 26.913 26.438 29.331 25.098 30.5235 24.3904 31.7563 23.753 33.023 23.189 37.1 21.16 41.054 20 47.944 20 54.908 20 58.881 21.16 62.959 23.185 64.2344 23.7304 65.4684 24.3681 66.651 25.093 69.068 26.433 70.493 28.026 70.493 29.778 70.493 31.555 69.524 33.198 67.122 34.549 66.704 31.7963 65.1327 29.3521 62.802 27.829 58.923 25.796 55.126 24.363 47.949 24.363 40.772 24.363 37.056 25.809 33.177 27.843ZM33.014 31 33 33C33.0024 36.7706 34.4314 40.4006 37 43.161L37 50.2C33.625 51.373 30.27 49.859 28.757 48.994 29.7788 47.5365 30.3951 45.8338 30.543 44.06 30.578 43.494 30.543 42.735 30.511 41.86 30.375 38.56 30.168 33.351 33.028 30.478 33.022 30.673 33.018 30.851 33.014 31ZM35.955 52.8 37.42 52.2C38.0304 53.191 38.9313 53.97 40 54.431L40 84.8C31.321 84.3 23.58 83.015 20 80.941L20 65.023C20.0789 62.9696 21.0446 61.0514 22.647 59.765 25.64 57.223 29.863 54.993 35.955 52.8ZM42 84.905 42 55.175C43.9568 55.6948 45.9755 55.9444 48 55.917 50.0246 55.9441 52.0433 55.6938 54 55.173L54 84.936C50.055 85.084 45.961 85.075 42 84.905ZM60.867 53.134C66.501 55.228 70.494 57.344 73.344 59.765 74.9411 61.0457 75.9063 62.9546 75.991 65L75.991 80.977C72.679 83.1 64.861 84.384 56 84.846L56 54.427C57.0667 53.9664 57.966 53.1889 58.576 52.2Z" fill="#448F54"/><path d="M68.687 63.757C68.6981 63.2269 68.6255 62.6985 68.472 62.191 68.4024 61.9794 68.3686 61.7577 68.372 61.535 68.4182 61.3087 68.518 61.0968 68.663 60.917L69.233 60.217 66.6 57.623 65.9 58.26C65.5434 58.5716 65.0121 58.5737 64.653 58.265L63.986 57.665 63.319 58.265C62.9631 58.5852 62.4229 58.5852 62.067 58.265L61.36 57.631 58.8 60.209 59.341 60.903C59.4798 61.0813 59.5731 61.2906 59.613 61.513 59.6095 61.7255 59.5675 61.9355 59.489 62.133 59.3011 62.6533 59.2119 63.204 59.226 63.757 59.226 67.678 63.506 68.913 63.689 68.963L63.956 69.038 64.224 68.963C64.408 68.913 68.687 67.678 68.687 63.757ZM61.227 63.757C61.2143 63.4211 61.268 63.0861 61.385 62.771 61.5426 62.3455 61.6205 61.8947 61.615 61.441L61.606 61.308C61.5661 61.0149 61.4885 60.7282 61.375 60.455L61.553 60.275C62.3364 60.6062 63.225 60.5806 63.988 60.205 64.7547 60.5815 65.6478 60.6034 66.432 60.265L66.623 60.453C66.5067 60.7188 66.425 60.9984 66.38 61.285L66.368 61.422C66.3537 61.8683 66.4145 62.3139 66.548 62.74 66.6509 63.0688 66.6979 63.4126 66.687 63.757 66.687 65.748 64.698 66.671 63.958 66.946 63.224 66.671 61.227 65.741 61.227 63.757Z" fill="#448F54"/><rect x="21.999" y="72" width="10" height="2" fill="#448F54"/><rect x="63.999" y="72" width="10" height="2" fill="#448F54"/></g></svg>